<?xml version="1.0" standalone="no"?>
<!DOCTYPE svg PUBLIC "-//W3C//DTD SVG 20010904//EN"
 "http://www.w3.org/TR/2001/REC-SVG-20010904/DTD/svg10.dtd">
<svg version="1.0" xmlns="http://www.w3.org/2000/svg"
 width="658.000000pt" height="980.000000pt" viewBox="0 0 658.000000 980.000000"
 preserveAspectRatio="xMidYMid meet">

<g transform="translate(0.000000,980.000000) scale(0.100000,-0.100000)"
fill="#000000" stroke="none">
<path d="M3336 9778 c-29 -46 -526 -2658 -526 -2768 0 -31 89 -217 205 -425
42 -77 79 -142 80 -144 2 -1 32 7 67 20 52 19 81 23 171 22 l108 -1 -3 1626
c-3 1782 0 1683 -60 1690 -19 2 -31 -3 -42 -20z"/>
<path d="M3207 6309 c-46 -13 -145 -101 -164 -146 -18 -43 -18 -223 0 -266 18
-42 87 -104 146 -130 58 -26 178 -29 233 -5 56 25 123 92 149 151 31 72 32
174 1 238 -29 60 -85 117 -138 140 -51 23 -175 32 -227 18z"/>
<path d="M3766 5974 c-12 -63 -44 -139 -88 -205 l-40 -63 22 -16 c116 -79
2532 -1444 2758 -1558 l113 -57 20 24 c36 43 26 64 -68 144 -234 197 -1697
1375 -1888 1519 -141 106 -247 173 -313 198 -60 23 -150 34 -373 45 l-136 7
-7 -38z"/>
<path d="M2660 5764 c-547 -314 -1949 -1138 -2270 -1334 -74 -45 -190 -119
-258 -163 -109 -72 -123 -84 -120 -107 3 -21 9 -25 39 -28 78 -7 188 35 2306
865 l352 138 176 248 177 247 -67 72 c-37 40 -78 94 -91 120 -15 30 -31 48
-42 48 -9 0 -100 -48 -202 -106z"/>
<path d="M3440 5597 c-45 -17 -75 -20 -160 -19 -58 1 -112 -1 -121 -3 -9 -3
-36 -36 -61 -73 l-45 -67 -31 -530 c-17 -291 -88 -1492 -157 -2668 -70 -1176
-124 -2141 -122 -2144 11 -10 174 -54 257 -69 120 -21 373 -29 505 -15 101 10
351 65 367 80 4 3 0 103 -8 221 -31 488 -255 4314 -289 4965 -9 165 -18 310
-21 323 -6 28 -38 28 -114 -1z"/>
</g>
</svg>
